<svg width="17" height="17" viewBox="0 0 17 17" fill="none" xmlns="http://www.w3.org/2000/svg">
    <path
        d="M8.82186 0.17171C8.69736 0.11834 8.56332 0.0908203 8.42786 0.0908203C8.29241 0.0908203 8.15836 0.11834 8.03386 0.17171L1.03386 3.17171C0.853473 3.24856 0.699655 3.37674 0.59154 3.54031C0.483424 3.70389 0.425781 3.89563 0.425781 4.09171C0.425781 4.28779 0.483424 4.47953 0.59154 4.64311C0.699655 4.80668 0.853473 4.93486 1.03386 5.01171L3.67786 6.14271C3.776 6.0317 3.89761 5.94392 4.03386 5.88571L8.03386 4.17171C8.15491 4.11776 8.28546 4.08841 8.41795 4.08536C8.55044 4.08231 8.68221 4.10563 8.8056 4.15395C8.929 4.20227 9.04156 4.27464 9.13674 4.36685C9.23193 4.45905 9.30783 4.56926 9.36005 4.69106C9.41227 4.81285 9.43976 4.94382 9.44092 5.07633C9.44208 5.20885 9.41689 5.34027 9.36682 5.46297C9.31674 5.58567 9.24277 5.69718 9.14922 5.79104C9.05567 5.8849 8.94439 5.95923 8.82186 6.00971L6.09486 7.17971L8.03486 8.01071C8.15922 8.06394 8.29309 8.09139 8.42836 8.09139C8.56364 8.09139 8.6975 8.06394 8.82186 8.01071L15.8219 5.01071C16.0017 4.93358 16.1549 4.8054 16.2625 4.64205C16.3702 4.4787 16.4276 4.28735 16.4276 4.09171C16.4276 3.89607 16.3702 3.70472 16.2625 3.54137C16.1549 3.37802 16.0017 3.24984 15.8219 3.17271L8.82186 0.17271V0.17171ZM1.73786 7.48871L3.42786 8.21171V12.3137C3.08162 12.235 2.731 12.1769 2.37786 12.1397C2.15001 12.1158 1.93728 12.0143 1.77528 11.8523C1.61327 11.6903 1.51181 11.4776 1.48786 11.2497C1.35635 9.99062 1.4409 8.71832 1.73786 7.48771V7.48871ZM7.72786 14.6647C7.05188 14.0014 6.27572 13.4487 5.42786 13.0267V9.06971L7.24586 9.84971C7.61936 10.0098 8.02149 10.0924 8.42786 10.0924C8.83423 10.0924 9.23637 10.0098 9.60986 9.84971L15.1179 7.48871C15.4166 8.71906 15.5011 9.99166 15.3679 11.2507C15.3439 11.4786 15.2425 11.6913 15.0804 11.8533C14.9184 12.0153 14.7057 12.1168 14.4779 12.1407C12.4604 12.3527 10.5744 13.2425 9.12786 14.6647C8.94093 14.8479 8.68962 14.9506 8.42786 14.9506C8.16611 14.9506 7.91479 14.8479 7.72786 14.6647ZM4.42786 16.0917C4.69308 16.0917 4.94743 15.9864 5.13497 15.7988C5.32251 15.6113 5.42786 15.3569 5.42786 15.0917V13.0267C4.79186 12.7107 4.12046 12.4717 3.42786 12.3147V15.0917C3.42786 15.3569 3.53322 15.6113 3.72076 15.7988C3.90829 15.9864 4.16265 16.0917 4.42786 16.0917Z"
        fill="#25282D" />
</svg>