<svg width="21" height="21" viewBox="0 0 21 21" fill="none" xmlns="http://www.w3.org/2000/svg">
    <path
        d="M8.42752 5.09139C8.1623 5.09139 7.90795 5.19675 7.72041 5.38428C7.53288 5.57182 7.42752 5.82617 7.42752 6.09139C7.42752 6.35661 7.53288 6.61096 7.72041 6.7985C7.90795 6.98603 8.1623 7.09139 8.42752 7.09139H14.0135L12.7205 8.38439C12.5384 8.57299 12.4376 8.82559 12.4398 9.08779C12.4421 9.34999 12.5473 9.6008 12.7327 9.78621C12.9181 9.97162 13.1689 10.0768 13.4311 10.0791C13.6933 10.0813 13.9459 9.98055 14.1345 9.79839L17.1345 6.79839C17.322 6.61086 17.4273 6.35655 17.4273 6.09139C17.4273 5.82623 17.322 5.57192 17.1345 5.38439L14.1345 2.38439C14.0423 2.28888 13.9319 2.2127 13.8099 2.16029C13.6879 2.10788 13.5567 2.08029 13.4239 2.07914C13.2911 2.07799 13.1595 2.10329 13.0366 2.15357C12.9137 2.20385 12.802 2.2781 12.7081 2.37199C12.6142 2.46589 12.54 2.57754 12.4897 2.70044C12.4394 2.82333 12.4141 2.95501 12.4153 3.08779C12.4164 3.22057 12.444 3.35179 12.4964 3.47379C12.5488 3.5958 12.625 3.70614 12.7205 3.79839L14.0135 5.09139H8.42752ZM12.4275 15.0914C12.6927 15.0914 12.9471 14.986 13.1346 14.7985C13.3222 14.611 13.4275 14.3566 13.4275 14.0914C13.4275 13.8262 13.3222 13.5718 13.1346 13.3843C12.9471 13.1967 12.6927 13.0914 12.4275 13.0914H6.84152L8.13452 11.7984C8.23003 11.7061 8.30621 11.5958 8.35862 11.4738C8.41103 11.3518 8.43862 11.2206 8.43977 11.0878C8.44093 10.955 8.41562 10.8233 8.36534 10.7004C8.31506 10.5775 8.24081 10.4659 8.14692 10.372C8.05302 10.2781 7.94137 10.2038 7.81847 10.1536C7.69558 10.1033 7.5639 10.078 7.43112 10.0791C7.29834 10.0803 7.16712 10.1079 7.04512 10.1603C6.92311 10.2127 6.81277 10.2889 6.72052 10.3844L3.72052 13.3844C3.53305 13.5719 3.42773 13.8262 3.42773 14.0914C3.42773 14.3566 3.53305 14.6109 3.72052 14.7984L6.72052 17.7984C6.90912 17.9805 7.16173 18.0813 7.42392 18.0791C7.68612 18.0768 7.93693 17.9716 8.12234 17.7862C8.30775 17.6008 8.41292 17.35 8.41519 17.0878C8.41747 16.8256 8.31668 16.573 8.13452 16.3844L6.84152 15.0914H12.4275Z"
        fill="#25282D" />
</svg>