<svg width="17" height="15" viewBox="0 0 17 15" fill="none" xmlns="http://www.w3.org/2000/svg">
    <path
        d="M6.13473 7.3848C6.04249 7.28929 5.93214 7.2131 5.81014 7.1607C5.68813 7.10829 5.55691 7.0807 5.42414 7.07955C5.29136 7.07839 5.15968 7.10369 5.03678 7.15398C4.91388 7.20426 4.80223 7.27851 4.70834 7.3724C4.61445 7.46629 4.54019 7.57795 4.48991 7.70084C4.43963 7.82374 4.41433 7.95542 4.41548 8.0882C4.41664 8.22098 4.44422 8.3522 4.49663 8.4742C4.54904 8.5962 4.62522 8.70655 4.72073 8.7988L7.72073 11.7988C7.90826 11.9863 8.16257 12.0916 8.42773 12.0916C8.6929 12.0916 8.94721 11.9863 9.13473 11.7988L12.1347 8.7988C12.3169 8.61019 12.4177 8.35759 12.4154 8.0954C12.4131 7.8332 12.308 7.58239 12.1226 7.39698C11.9371 7.21157 11.6863 7.1064 11.4241 7.10412C11.1619 7.10184 10.9093 7.20264 10.7207 7.3848L9.42773 8.6778V3.0918H14.4277C14.9582 3.0918 15.4669 3.30251 15.8419 3.67758C16.217 4.05266 16.4277 4.56136 16.4277 5.0918V12.0918C16.4277 12.6222 16.217 13.1309 15.8419 13.506C15.4669 13.8811 14.9582 14.0918 14.4277 14.0918H2.42773C1.8973 14.0918 1.38859 13.8811 1.01352 13.506C0.638448 13.1309 0.427734 12.6222 0.427734 12.0918V5.0918C0.427734 4.56136 0.638448 4.05266 1.01352 3.67758C1.38859 3.30251 1.8973 3.0918 2.42773 3.0918H7.42773V8.6778L6.13473 7.3848ZM7.42773 1.0918C7.42773 0.82658 7.53309 0.572226 7.72063 0.38469C7.90816 0.197154 8.16252 0.0917969 8.42773 0.0917969C8.69295 0.0917969 8.9473 0.197154 9.13484 0.38469C9.32238 0.572226 9.42773 0.82658 9.42773 1.0918V3.0918H7.42773V1.0918Z"
        fill="#25282D" />
</svg>